<?xml version="1.0" ?><svg xmlns="http://www.w3.org/2000/svg" viewBox="0 0 381.80728 257.95761" height="257.95761mm" width="381.80728mm">
    <path d="m 2879.0078,2090.4512 c -3.0823,-0.013 -6.3142,0.084 -9.7031,0.2988 -54.6034,3.4606 -57.7902,55.4524 -42.8379,61.748 0,0 -38.1683,28.3233 -55.3262,69.1153 -17.1579,40.7919 -3.0283,86.9507 36.2422,114.6133 57.4132,32.6987 102.6966,10.8178 155.0879,-54.6641 52.3912,-65.4818 -43.584,-131.541 -43.584,-131.541 23.052,-13.9221 22.7956,-59.3129 -39.8789,-59.5703 z m 202.3672,159 c -22.7549,-0.1959 -48.1656,19.082 -63.7207,40.6289 -19.9104,27.58 -27.0677,56.6462 3.2109,90.5019 97.3019,98.6487 91.8936,159.5631 97.9493,201.0157 6.0557,41.4526 24.498,71.9229 111.1132,58.7109 86.6153,-13.212 34.7265,-205.7223 1.42,-268.9746 -33.3064,-63.2524 -105.7917,-100.8228 -131.7579,-116.7598 -5.6801,-3.4862 -11.8434,-5.0682 -18.2148,-5.123 z m -302.9863,174.8828 -45.6934,45.416 109.2774,54.5 19.5449,-47.8945 z m -419.8516,68.873 -37.8203,43.4629 -55.2266,4.961 -32.3457,45.9765 -90.7812,0.959 -39.2695,36.6582 -44.0606,-1.4375 8.4121,81.8926 -59.5879,17.2461 3.7891,76.2422 -71.4824,29.7109 10.5195,23.1875 -95.4453,56.9551 105.4258,14.0176 -37.6817,26.8945 c 131.2751,3.5173 133.6016,-1.8984 133.6016,-1.8984 l 18.664,4.1914 91.3829,-22.3575 47.123,24.5567 19.9727,-8.709 37.9843,30.1894 -30.4765,22.5626 c 39.0004,14.8845 83.6423,27.8482 141.0547,36.4648 l 37.2558,-57.1445 -76.4258,-21.5371 84.8106,-17.5176 32.2129,24.5586 59.9023,-24.7969 57.5039,31.5059 c 14.4402,-14.7103 53.7861,-10.6029 81.5782,-15.2247 7.6345,12.7097 10.0179,31.8619 30.7226,35.3575 43.7614,6.5755 82.8317,-4.2995 124.2402,-6.4766 l 10.1172,-30.0684 96.9063,9.3438 33.1933,-18.2695 53.5606,1.1933 -49.6152,-32.041 29.1503,-32.1055 -128.7793,-21.5351 -13.7441,-71.957 -56.2422,-10.1602 -2.5156,-21.5352 -79.6211,-11.3886 47.8457,-32.4395 -44.6562,-12.1191 14.3847,-29.4414 c -14.8904,-15.3301 -29.5962,-21.1327 -45.0117,-63.4024 l -48.3848,-0.014 19.6309,-70.3692 -90.7852,-2.4766 -32.7324,-14.1113 -17.8672,18.9531 -84.6035,-15.4746 c -7.0722,20.0591 -43.8558,-20.6889 -65.7832,-31.0332 z m -278.4648,492.1387 -106.2188,2.0977 c 18.7522,24.6702 45.2485,44.8073 75.4551,62.7734 34.4132,-0.7067 68.4657,-2.6425 100.0254,-13.0508 z" color="#000" overflow="visible" fill="#FFFFFF" paint-order="fill markers stroke" transform="translate(-113.93458,-22.10914) matrix(0.26458333,0,0,0.26458333,-374.67907,-528.01715)"/>
    <path d="m 1975.1692,3001.6213 c -7.5073,-6.4803 -10.5559,-13.475 -8.1626,-18.728 2.7112,-8.3943 38.3828,-3.9619 48.1758,-3.9915 22.1222,1.2014 46.2065,-1.6983 67.2878,-1.7412 12.789,0 17.5725,2.6541 14.2836,7.9204 -1.4932,14.5257 37.2819,29.9034 47.6371,39.1565 2.9493,2.8837 7.2741,5.4989 9.6105,5.8118 9.4996,1.2721 7.7705,7.2692 -3.567,12.3709 -16.3054,7.3372 -38.8998,10.6302 -77.5461,11.3019 l -26.0794,0.4533 c -30.5476,-15.0915 -47.3421,-31.4741 -71.6397,-52.5541 z m 127.6422,34.5479 c 28.3675,-3.519 31.6118,-4.7856 22.8599,-8.9246 -21.5483,-10.8123 -33.5103,-20.287 -49.1847,-34.7133 l -41.7563,-0.1451 c -22.966,-0.079 -42.1103,0.4281 -42.5427,1.1279 -1.6274,2.633 22.9349,25.5048 35.5686,33.1206 19.0371,11.4762 38.979,14.0094 75.0552,9.534 z m 267.247,1.4206 c -15.5714,-3.87 -32.0393,-6.6399 -47.3481,-8.8406 -36.026,-5.1698 -61.0005,-11.8181 -73.0144,-19.4372 -4.1569,-2.636 -9.3747,-4.6609 -11.5954,-4.4997 -15.4145,-7.0842 4.0461,-17.1042 8.8566,-19.3693 11.6104,-5.3501 15.7059,-9.3907 11.7578,-11.5999 -3.6866,-2.0632 -19.7253,-14.7519 -20.2778,-16.0426 -3.4413,-6.3867 -5.9077,-5.357 -9.7238,-2.5552 -11.6609,8.6032 -20.0919,6.9031 -44.6153,-8.9959 -11.2955,-7.3231 -15.3978,-9.186 -18.5354,-8.4173 -2.2162,0.5428 -7.6559,1.6227 -12.0883,2.3998 -23.6911,2.9467 -48.0201,11.6039 -70.4734,16.0867 -9.7783,1.9258 -11.1326,1.8676 -13.8532,-0.5944 -2.9516,-2.6712 -33.8818,-15.5755 -37.3326,-15.5755 -4.17,0 -30.7529,-15.5908 -33.1238,-19.427 -17.7089,-2.205 -31.693,16.7347 -50.7286,19.427 -0.8805,0 -1.601,1.1898 -1.601,2.6441 0,2.4043 3.1103,2.5395 34.2905,1.4901 36.6808,-1.2345 43.0745,-0.6554 43.0745,3.9021 0,5.9144 -5.097,7.4962 -29.8177,9.2532 -21.9511,1.5602 -51.2378,1.5249 -62.4263,-0.076 -24.2696,-5.3026 -14.8188,-16.5336 0.776,-24.6448 4.2108,-2.1485 7.6559,-4.4731 7.6559,-5.1659 0,-1.9718 -36.1954,-3.173 -55.3284,-5.8689 -9.1237,-1.2856 -31.0537,-0.7111 -35.6665,-5.6338 -4.1618,-4.5987 -2.4791,-8.359 5.7748,-12.9046 20.7287,-12.0126 27.6905,-16.2687 37.9114,-21.5272 1.7407,-1.7409 10.238,-1.2875 10.238,0.5462 0,0.908 -4.8137,5.0784 -10.6973,9.2677 -20.7505,14.775 -22.0613,16.7539 -11.4591,17.2985 24.2442,3.4427 47.4863,6.1916 70.7665,8.064 17.8942,0.5739 24.445,-2.1612 35.202,-16.134 4.2349,-5.1027 10.615,-2.8942 20.953,7.253 16.2259,16.1724 41.0455,23.2484 58.4648,31.3586 5.69,2.7056 6.6772,2.727 15.3118,0.3327 7.9433,-2.2025 50.3474,-11.2355 63.6269,-13.5539 4.6606,-0.8136 5.894,-4.1873 2.3292,-6.3719 -2.7046,-1.6576 -15.6263,-20.2344 -15.6263,-22.4652 0,-3.4331 6.0612,-7.0298 11.8469,-7.0298 6.4195,0 6.7354,0.4125 10.8108,14.1111 1.7618,5.9221 2.8557,7.0776 8.0163,8.4673 3.2867,0.885 7.8522,3.0851 10.1454,4.889 28.9763,22.7927 49.6153,29.4035 59.3475,19.0095 10.2777,-6.6885 17.6927,-4.703 20.7467,6.162 2.7953,10.1752 5.3718,14.0084 13.3673,19.8884 l 6.5881,4.845 c 5.8514,-5.8496 18.1722,-17.4121 18.6964,-24.7603 0,-7.5339 9.424,-7.1428 31.4295,1.305 10.0149,3.8447 12.1877,4.1493 19.3413,2.7123 15.8359,-3.1813 24.2984,-5.0945 32.5176,-7.3521 7.4017,-2.0329 18.7417,-3.0798 28.9602,-2.6733 4.0262,0.1596 6.2203,4.4728 3.7749,7.4195 -0.9303,1.1208 -3.6628,2.4302 -6.072,2.9096 -12.7517,2.5372 -33.581,8.0762 -34.8636,9.271 -0.8506,0.7922 0.3336,2.057 2.8061,2.9969 5.998,2.2804 35.5071,8.3884 46.6172,9.6491 18.2625,2.0722 18.6985,7.872 2.4488,32.5727 -20.7234,33.2029 -31.4002,38.8125 -48.1824,35.9842 z m 19.057,-25.9766 c 9.1056,-9.3265 16.0183,-22.7711 17.9862,-25.7607 5.0845,-7.7241 -0.6633,-6.9407 -7.6752,-7.5924 -15.1706,-1.41 -38.1427,-7.0013 -76.7161,-18.6725 -8.8647,-2.6821 -16.6025,-4.8893 -17.195,-4.9048 -0.5927,-0.016 -2.6988,2.6917 -4.6804,6.016 -5.4753,10.0433 -23.3687,27.7368 -40.1778,37.6534 0,6.345 72.203,21.1101 108.4724,22.182 l 10.96,0.3238 z m 762.2805,-1.3598 c -10.9111,-13.4253 0.4993,-19.6807 11.9688,-21.6805 23.9436,-6.5469 45.0201,-13.2 61.498,-30.4476 -3.181,-106.7729 1.8732,-205.6695 -5.4617,-303.1006 -11.902,4.8743 -37.9,-2.9952 -45.869,-1.309 -6.4903,54.9046 -12.1581,143.2103 -20.6631,217.1268 -0.2908,2.2162 -1.3763,15.9969 -2.4123,30.6237 -3.2254,45.5356 -3.2059,45.4402 -9.9497,49.0509 -5.4337,2.9094 -6.727,2.974 -19.5574,0.9781 -38.575,3.4022 -68.6621,27.1507 -86.2392,8.7199 -11.5025,-18.6907 13.5791,-18.5365 20.55,-18.8403 18.4399,0.7311 30.8019,-7.5339 48.421,-10.1197 15.05,-2.0528 13.8192,-0.9987 19.7291,-16.8948 10.4682,-83.9225 25.2797,-163.3099 27.7415,-241.9837 l 0.895,-30.036 c -38.1745,-12.3366 -45.6664,-37.6074 -45.3599,-68.4134 -4.21,-40.8357 -10.4488,-74.8816 -26.0264,-106.6751 -27.6974,42.5509 -79.7883,74.181 -120.4948,89.6839 -32.652,12.1443 -67.6792,13.5042 -100.7357,-0.4267 -14.5501,-6.3811 -16.0145,-6.5098 -22.3965,-1.969 -25.9736,10.4723 -71.1896,-1.8755 -91.2897,-22.0456 -9.9393,-10.0367 -5.4244,-17.0702 -8.839,-28.2028 l -2.8111,-8.9376 4.3218,-5.6663 4.322,-5.6664 -3.7069,-1.5589 c -2.0388,-0.8573 -6.7771,-2.3335 -10.5296,-3.2803 -8.1159,-2.0479 -10.9317,-6.0844 -8.2893,-11.8836 15.982,-17.0776 37.1753,-30.7223 47.504,-46.5434 4.1264,-6.4513 12.5868,-17.1809 16.9738,-6.4471 3.2952,8.349 4.1343,9.1847 14.4456,14.386 10.9573,5.5271 23.3312,7.5152 33.0849,5.3153 7.3524,-1.6582 16.901,0.7074 20.4277,5.0608 3.8214,4.7169 2.9982,7.8453 -3.155,11.9921 -2.794,1.8829 -4.6023,4.0842 -4.0183,4.892 0.5839,0.8079 5.7759,3.9083 11.538,6.89 14.3091,7.4048 15.6213,8.8084 13.4965,14.4373 -1.6149,4.2782 -1.3376,4.7512 4.887,8.3421 14.6813,4.9473 45.3241,1.8455 61.7432,-4.1882 46.9702,-17.2608 65.966,-41.4179 87.6632,-79.8633 -11.2913,-15.123 -29.0241,-30.5203 -33.4365,-46.0189 -11.5927,-40.7195 26.9901,-85.8244 59.0686,-104.629 17.9043,-10.4956 29.8338,-8.867 49.9554,-4.6773 32.6664,11.5552 77.0337,45.3982 97.62,68.2718 59.5803,57.3977 79.9642,146.102 90.9553,197.9501 2.7278,53.4573 1.2438,106.2826 -47.4811,131.9757 -4.0293,2.0442 -4.1318,7.4555 -1.0683,56.3559 9.8291,99.0077 2.695,167.0443 12.092,262.8017 1.2106,7.4054 0.9567,8.5864 -2.8064,13.0585 -18.3807,10.2779 -39.8855,15.7997 -61.4374,26.8121 -12.866,4.2287 -30.2978,13.3125 -36.8681,6.7804 z m 59.821,-374.1383 c 5.3924,-1.4448 5.7968,-6.0519 2.7655,-31.5061 -3.8334,-32.1901 -3.8347,-32.0987 0.4197,-33.6953 8.2254,-3.0869 16.7516,5.0131 18.655,30.5517 0.3547,4.7586 1.4797,17.1908 3.2901,24.3879 38.0348,-18.8248 34.8404,-73.7074 33.8648,-98.7731 -2.3165,-65.7358 -49.467,-158.372 -95.1642,-203.8621 -23.7292,-21.0569 -84.3814,-82.2035 -117.4004,-57.6456 -27.8868,23.3873 -58.9441,54.9476 -41.8667,90.7577 7.6283,15.9958 10.8198,19.8915 40.9222,49.9517 13.417,13.3981 18.7309,17.7649 19.7198,16.2053 9.902,-24.5012 6.4629,-73.4772 -1.9107,-95.2813 -4.3475,-12.0491 -8.2921,-25.2583 6.6848,-25.3186 13.1133,-0.053 19.1931,8.1373 19.1931,25.689 6.3998,40.6879 13.0387,72.783 -4.1485,112.1409 -2.1786,4.591 -2.0392,5.5347 2.0286,13.7356 38.2032,69.323 24.4331,93.9123 31.361,138.5533 3.8322,24.6932 50.3425,51.7885 81.5859,44.109 z m -250.4055,-101.2013 c 44.7793,-19.9309 79.7798,-39.6978 104.4445,-89.7299 -9.0615,-9.8605 -19.1543,-20.4382 -27.5007,-28.7983 -19.5591,29.3587 -50.1567,60.2533 -82.6344,74.7264 -26.1003,11.6311 -60.2254,19.9149 -86.333,5.8284 -3.1912,-1.8828 -6.3074,-2.8409 -6.9252,-2.1289 -0.6178,0.7119 -3.1914,6.3713 -5.7192,12.5766 -2.5277,6.2053 -5.5421,12.713 -6.6987,14.4616 -2.8891,4.3681 -2.6423,5.6855 1.0646,5.6855 1.7422,0 5.55,2.0443 8.4618,4.5428 28.9088,22.2469 78.2692,13.3271 101.8403,2.8358 z m -120.7417,-26.6592 c 0.5522,-1.7396 3.8649,-8.3677 7.3616,-14.7292 3.4967,-6.3613 6.3576,-12.1284 6.3576,-12.8153 0,-1.3399 -21.9468,-14.4222 -24.1944,-14.4222 -0.7406,0 -3.5491,-1.8533 -6.2411,-4.1185 l -4.8946,-4.1186 -7.9664,2.8293 c -10.6835,3.7945 -18.9821,1.8766 -23.1931,-5.3601 -2.5354,-4.3577 -2.6682,-5.6418 -0.885,-8.5599 1.8233,-2.9836 1.6758,-3.7463 -1.1256,-5.8227 -7.8113,-5.7903 -9.777,-5.0149 -24.2155,9.5542 -7.5137,7.5816 -13.6612,14.8312 -13.6612,16.1102 0,2.0358 21.342,13.9921 24.9759,13.9921 0.7506,0 2.6955,1.2043 4.3219,2.6763 1.6266,1.4721 3.4441,2.1899 4.0388,1.5952 0.5948,-0.5947 -0.061,-1.9804 -1.459,-3.0793 -7.9507,-6.2538 -2.8407,-15.6982 8.4938,-15.6982 5.0454,0 7.456,1.0045 10.637,4.4324 3.5464,3.8218 13.8746,20.1309 19.1077,30.1724 4.4832,8.6022 20.4889,13.8296 22.5416,7.3619 z m -85.1594,-8.7428 c 0.8865,-1.6564 1.1602,-3.4634 0.608,-4.0154 -1.4084,-1.4086 -5.3298,2.128 -5.3298,4.8066 0,3.2045 2.838,2.7289 4.7218,-0.7912 z m -87.574,484.4174 c -7.28,-8.102 -11.7952,-13.7175 -11.7952,-24.0826 -18.4746,1.713 -41.7681,0.6859 -58.8297,6.5103 -2.6594,0.9796 -6.971,3.5338 -9.5815,5.676 -6.2142,5.0993 -12.5716,4.1013 -22.591,-3.5467 -6.9741,-5.1666 -15.5977,-8.5343 -21.7382,-12.6227 -20.3257,-13.6129 -17.7383,-13.0149 -29.438,-6.8024 -13.7305,8.2233 -32.0615,9.0989 -44.2928,18.4448 -7.7909,6.1285 -12.4071,4.5202 -25.3233,-8.8218 -6.0161,-7.8038 -35.3836,-26.5851 -34.524,-34.9855 0.4482,-3.155 1.3479,-3.6297 6.1367,-3.2372 14.8801,3.9438 24.6744,17.8225 38.2273,25.0964 2.8371,1.4574 6.8262,2.6196 8.8648,2.5829 5.8747,-0.1064 38.3803,-8.9797 40.4404,-11.0399 1.4105,-1.4104 0.2597,-3.3301 -4.7325,-7.8933 -3.6143,-3.3262 -11.7074,-12.9513 -16.6111,-19.2863 -6.8408,-7.1297 3.0041,-12.5206 10.3981,-12.9216 14.9882,-0.8129 67.6062,-5.2806 81.2773,-6.9011 8.3065,-1.7656 18.125,-0.4272 25.7761,-4.2038 4.5961,-2.3318 6.7148,-1.4247 16.6292,7.1208 12.0837,10.4151 24.2973,18.0273 43.2924,26.982 10.1082,4.7654 18.6082,9.7723 18.8886,11.1266 0.7687,3.7107 -7.0418,4.9697 -16.481,2.6565 -17.7908,-4.36 -52.4414,-23.5806 -61.1336,-33.9109 -4.0151,-4.7716 -4.3631,-4.8769 -8.0784,-2.4425 -22.2538,7.7544 -50.1212,9.4598 -74.3823,11.382 -7.9782,0.6078 -15.0599,1.429 -15.737,1.8251 19.166,19.1571 59.9962,42.1688 75.6469,42.86 9.2092,0.2746 23.6202,-3.8178 31.1552,-4.8646 7.535,-1.047 25.4616,-2.3269 39.8369,-2.8442 21.8915,-0.7878 26.9311,-0.5299 31.0266,1.588 6.5795,3.4024 6.1592,6.6406 -1.1544,8.8903 -3.3243,1.0225 -7.0386,2.1777 -8.2542,2.5671 -1.4979,3.6165 8.6547,13.3774 12.2836,15.8506 9.1733,6.0026 41.6988,8.2753 82.9373,5.7955 40.3657,-2.4275 43.624,-3.0145 45.0412,-8.1151 1.9274,-6.9374 3.9616,-20.3976 3.3567,-22.2122 -0.376,-1.1282 -3.1453,-0.6416 -7.8661,1.382 -9.0995,3.9004 -11.8539,3.9351 -11.8539,0.1499 1.035,-8.1307 24.5931,-17.6077 37.9716,-26.738 2.9497,-2.1793 2.6676,-2.508 -4.9303,-5.7454 -20.5122,-4.0614 -65.8114,-30.7351 -72.5544,-26.6956 -8.3026,3.5402 -20.069,19.6609 -28.0367,20.2466 -3.8059,0 -9.8152,-5.3066 -9.8152,-8.6671 8.1166,-11.1351 18.1052,-17.8165 28.4429,-28.0007 5.0784,-5.0513 13.9728,-4.8496 20.9538,0.475 10.2093,7.787 47.8833,24.0536 84.3803,36.433 22.8379,10.2689 4.2503,17.2419 -8.636,22.2266 -7.8918,3.3828 -6.8259,1.2946 -16.3618,32.0562 l -2.1623,6.9756 c 3.0361,1.223 9.5985,0.6291 8.9302,6.6488 0,7.5555 -33.7196,12.2022 -85.7294,14.9876 -29.7325,2.7832 -56.7891,6.9652 -79.2698,-11.955 z m 211.4141,-20.4224 c -28.9024,-0.8521 -36.3058,-1.5446 -40.1439,-3.7545 -10.5959,-2.9534 -1.0131,-13.709 3.6218,-12.3639 5.3789,2.0789 18.4647,4.0046 32.988,4.8547 10.4362,-0.9653 43.1758,7.2207 50.0212,1.1753 1.9244,-1.7438 8.5681,-6.5307 14.7641,-10.6377 11.0126,-7.3 16.3537,-8.9503 19.4389,-6.0063 1.3083,1.2482 12.706,3.4547 30.1921,5.8448 8.0413,1.0992 3.0423,-2.0745 -8.9143,-5.6594 -6.4282,-1.9274 -14.5075,-5.7394 -17.954,-8.471 -5.1057,-4.047 -6.7476,-4.6169 -8.8647,-3.0773 -12.6226,9.179 -17.3621,11.7811 -18.2515,5.5479 -0.4183,-2.9321 -1.5468,-3.6101 -6.0092,-3.6101 -11.0285,0 -45.6541,-8.4027 -60.1571,-13.2515 -16.5042,-5.5179 -20.9007,-8.4238 -20.1962,-13.3485 0.6767,-4.7293 9.8388,-5.336 17.3005,-1.1457 19.8644,11.2434 42.9552,12.4202 64.1427,19.462 l 9.2899,3.1471 c 7.4471,-10.7138 31.3673,-29.0065 33.0413,-36.1241 0,-2.6648 -2.7361,-3.4337 -16.9236,-4.7563 -28.6939,-2.6748 -99.561,-15.0712 -109.2163,-19.1045 -6.0788,-2.5395 -7.1468,-6.9073 -2.8158,-11.5174 2.7199,-2.8951 3.1492,-4.4216 1.9003,-6.7553 -0.8537,-21.6465 -2.7389,-32.0365 -7.6177,-46.1024 -1.3106,-3.4152 -7.6784,-5.8482 -18.1027,-6.917 -11.9706,-1.2272 -17.7225,-3.4888 -18.9842,-7.4644 -1.4553,-4.5848 1.346,-6.5947 9.2983,-6.6718 16.1786,-0.1563 34.8961,4.7934 39.377,10.4137 2.8106,3.5253 6.0295,14.6861 5.677,19.6836 -0.5212,7.3893 2.7158,29.8082 5.6465,39.1054 l 2.7159,8.6156 c 31.4852,6.9084 64.4869,13.0794 92.9276,16.916 14.6268,1.9491 28.1673,4.3981 30.0898,5.4423 1.9226,1.0441 3.9777,4.0946 4.5673,6.7786 0.9887,4.5016 0.1,5.8053 -11.4402,16.7982 -12.0211,11.4504 -12.4176,12.0601 -10.1076,15.5393 1.3563,2.0426 8.6844,6.3312 16.8095,9.8371 28.0287,13.4618 29.211,22.7063 18.8373,25.2692 -2.8172,1.4911 -35.9561,1.0807 -47.727,-0.5909 -4.8688,-0.6914 -7.8517,0.053 -13.7,3.417 -4.1118,2.3656 -8.5642,5.2075 -9.8939,6.3156 -16.8676,12.2086 -38.941,3.8027 -55.6271,3.1666 z m -636.6287,-52.4285 c -6.4898,-1.3835 -20.8764,-8.7792 -29.9749,-15.4087 -8.8828,-6.4725 -24.8762,-25.2864 -30.4665,-35.8393 -5.4133,-10.2187 -10.4365,-16.3922 -16.181,-19.8856 -5.9945,-3.6455 -6.6546,-10.4754 -1.1455,-11.8551 5.1726,-1.2955 7.8216,-1.2476 29.1008,0.5252 10.4651,0.8718 20.4379,1.2162 22.1619,0.7654 2.8222,-0.738 3.1346,-2.3174 3.1346,-15.8484 0,-9.9649 -0.6528,-15.4322 -1.9375,-16.2262 -1.0656,-0.6585 -12.1264,-1.3521 -24.5796,-1.5413 -24.8759,-0.3778 -31.1603,-1.0254 -54.5929,-5.6256 -8.7082,-1.7096 -17.205,-3.1083 -18.8816,-3.1083 -3.7556,0 -5.6918,3.475 -8.6855,15.5889 -3.436,18.7875 -11.7351,35.3704 -12.1602,54.8955 -0.051,9.4135 -0.3639,9.1953 15.2662,10.6446 7.8378,0.7269 13.4891,0.2693 46.4131,-3.7569 21.5302,-2.6328 29.1502,-0.4295 19.7701,5.7165 -4.9618,3.2511 -20.3125,6.8602 -37.0831,8.7187 -41.8875,4.6419 -49.2706,5.2426 -52.9825,4.311 -7.5053,-1.8838 -8.7577,-4.5897 -8.0674,-17.431 3.0124,-29.6777 9.7202,-39.0179 17.1962,-69.8225 3.0941,-12.9532 4.8912,-17.1641 8.8442,-20.7247 3.6702,-3.3057 3.3137,-3.342 36.5331,3.7179 21.7634,4.6253 47.246,7.0752 62.7828,6.0359 14.3743,-0.9616 25.716,1.7701 30.0065,7.227 2.3067,2.9336 2.2665,4.4339 -0.454,16.9794 -1.6413,7.5689 -3.7736,15.2366 -4.7384,17.0395 5.216,4.7609 26.4433,1.4959 40.7333,-1.4392 3.3937,-3.0712 11.772,-3.4063 15.1468,-0.6055 1.2228,1.0149 3.064,4.5072 4.0913,7.7605 8.4214,22.382 19.8763,36.0545 37.7158,44.6877 15.1851,7.2889 21.3537,12.0784 19.4735,15.1203 -1.59,2.5727 -5.5996,2.105 -17.9436,-2.0935 -27.9999,-9.3041 -39.8735,-25.1474 -49.9862,-42.6543 -5.3877,-9.3376 -6.2389,-10.105 -10.1081,-9.1116 -10.7671,2.7642 -25.6873,3.9338 -50.5635,3.9636 -26.928,0.032 -26.997,0.042 -26.9466,3.6589 0.086,6.1613 9.1054,22.2273 18.3591,32.7024 10.1225,11.4585 22.5995,15.4542 28.5176,19.0404 1.9834,1.2019 6.258,1.8991 12.0873,1.4617 11.639,-0.8732 24.8061,1.819 47.5946,-0.5213 18.0749,-1.8563 27.1678,-1.0319 27.1678,2.4636 0,2.4902 -10.0963,6.014 -25.7883,9.0004 -11.3354,2.1574 -50.9668,3.1504 -58.8297,1.474 z m 169.1917,-3.7538 c -1.7486,-1.2103 -4.9059,-2.7399 -7.0162,-3.3989 -11.1817,-3.4924 -36.1843,-21.9127 -39.6467,-29.2092 -2.4929,-5.2537 -2.5061,-5.9777 -0.1563,-8.5749 1.4121,-1.5602 7.7262,-4.082 14.0314,-5.6038 32.372,-10.9434 67.8033,-22.7023 95.4575,-33.4746 9.5375,-3.7796 17.1415,-5.896 19.0305,-5.2964 3.7406,1.1872 6.185,6.9066 6.185,14.4714 0,7.447 3.9089,18.399 10.4311,29.2261 6.1695,10.2418 5.8788,13.4372 -1.2232,13.4372 -6.8644,0 -17.3299,-11.4434 -21.8812,-23.9258 -1.8944,-5.1955 -3.4555,-10.4599 -3.4691,-11.6987 -0.06,-5.4198 -2.5351,-6.7076 -7.7305,-4.0209 -2.7276,1.4105 -11.3688,4.6421 -19.2025,7.1812 -25.3974,8.2388 -45.5836,16.8222 -69.5946,26.2389 l -3.8756,1.4996 4.5062,4.7034 c 2.4785,2.5869 11.838,8.8101 20.7991,13.8292 8.9612,5.0192 16.8234,9.9496 17.4718,10.9565 1.4815,2.301 -3.1194,5.8602 -7.5753,5.8602 -1.8495,0 -4.7934,-0.9902 -6.542,-2.2005 z m 405.633,-16.7378 c -0.8233,-1.5513 -2.594,-6.4471 -3.9348,-10.8794 -6.8052,-22.4968 -10.8725,-25.8607 -37.9364,-31.3761 -27.7781,-5.6607 -52.0967,-15.8221 -51.2482,-21.4138 1.1393,-7.5094 6.5642,-7.7734 21.4201,-1.0422 45.462,10.531 49.9334,6.3423 69.4564,15.7125 5.5008,2.9854 7.9144,7.8826 10.73,21.7714 3.0559,15.0744 3.2897,25.4574 0.633,28.1141 -2.8131,2.813 -7.3929,2.3678 -9.1201,-0.8865 z m -259.298,-8.7042 c -1.5636,-1.9554 -5.8019,-6.8711 -9.4181,-10.9241 -11.4057,-12.7825 -19.926,-28.7604 -24.6807,-46.283 -1.8121,-6.6782 -6.3286,-9.7241 -11.731,-7.9112 -13.899,2.0307 -26.1305,1.8654 -40.8253,3.6396 -15.3591,1.9191 -21.7589,0.092 -21.7589,-6.2105 0,-3.4407 5.738,-6.2099 12.8672,-6.2099 5.323,0 9.6976,-1.4264 9.6976,-3.1623 0,-0.663 -3.0826,-3.2108 -6.8501,-5.6615 -7.5777,-4.9294 -18.5951,-17.9989 -23.003,-27.2876 -5.8743,-13.7871 6.4516,-8.0675 12.9295,-10.4476 50.6567,-9.3371 76.2731,-23.0063 114.047,-19.8277 4.6997,0.9052 3.2401,6.1843 -2.4319,8.7949 -2.881,1.3262 -15.0298,4.2907 -26.9972,6.588 -74.6574,14.3309 -79.6392,15.5578 -80.1695,19.7442 -0.4841,3.8223 1.5401,6.3154 11.6693,14.3726 4.4323,3.5258 9.9172,8.336 12.1885,10.6893 3.9922,4.1363 4.6089,4.2541 18.5354,3.5382 7.9231,-0.4073 16.9771,-1.3157 20.12,-2.0186 7.2947,-1.6316 12.5114,0.3043 13.5043,5.0113 0.4289,2.0329 1.55,7.6854 2.4913,12.561 2.4615,12.749 7.7215,25.1968 15.2478,36.0832 13.8717,20.0651 15.504,24.1456 10.6894,26.7224 -2.6945,1.4422 -3.7849,1.1215 -6.1216,-1.8007 z m -595.9749,-11.3012 c -10.3565,-7.6248 -23.8612,-25.2683 -29.0154,-37.3752 -3.136,-7.5057 -1.547,-10.1521 7.0156,-11.6833 6.4812,-1.1592 11.097,-3.0967 40.0646,-16.8183 21.1658,-10.0261 20.3467,-9.1291 22.0298,-24.1212 0.9576,-8.5285 -2.7758,-48.278 -5.2946,-56.3747 -2.7625,-8.8798 0.6846,-11.113 18.4038,-11.9229 14.7318,-0.6734 26.0113,-3.0614 47.3347,-10.0214 13.9637,-4.5578 18.3632,-4.8219 21.3036,-1.2789 1.8485,2.2273 1.6448,3.0193 -1.4121,5.4947 -3.8966,3.1553 -38.6994,15.0405 -52.3083,17.8632 -4.6673,0.9682 -10.2267,2.8641 -12.354,4.213 -5.3061,0.5567 -4.2224,4.5562 -3.8524,12.6997 0.5737,12.6234 2.5394,38.0028 3.113,40.8704 0.9666,4.8328 1.4089,5.1411 6.0485,4.2172 2.7533,-0.548 7.4596,-2.7395 10.4588,-4.8698 4.572,-3.2475 6.004,-3.5673 8.8648,-1.9789 6.1924,3.4382 9.2926,6.601 11.3895,11.6196 1.1389,2.7255 5.065,8.9052 8.7249,13.7328 6.8594,9.048 8.2197,13.4782 4.5689,14.8792 -4.1031,1.5745 -11.8696,-3.3894 -20.8786,-13.3447 l -9.1357,-10.0953 -10.5426,4.4807 c -21.4843,11.743 -44.3124,19.2372 -64.2228,30.507 -9.3149,5.2386 -10.4591,7.5766 -6.5533,13.3895 4.9503,9.1921 14.9883,19.2675 14.0213,24.3682 -0.9943,3.802 -2.9668,4.1952 -7.772,1.5494 z m 732.5501,-33.0818 c -17.3499,-10.2878 -35.6065,-26.7362 -43.9261,-39.5756 -4.8792,-6.8632 -2.8167,-9.7306 -9.1474,-3.9124 -28.4675,26.1623 -40.5751,34.9616 -51.2887,37.274 -4.3344,0.9356 -5.2383,0.6473 -5.2383,-1.671 0,-3.3947 48.7423,-51.8697 54.2682,-53.9706 7.7565,-2.9491 21.2369,2.7068 21.4338,8.9927 0.176,5.6159 13.9253,24.7997 21.083,29.4165 7.7613,5.006 28.9048,24.9078 28.0063,26.3616 -1.6186,2.619 -7.8861,1.4161 -15.1908,-2.9152 z m 81.8488,-14.6072 c -4.6051,-19.9377 0.069,-37.0265 -3.7002,-57.8197 -1.0637,-4.9028 -7.3306,-6.7386 -26.5719,-7.7842 -33.7255,-1.8324 -43.2179,-3.6366 -49.562,-9.42 -6.4323,-8.4765 -3.5159,-10.8825 4.7787,-11.1659 13.6073,-3.8573 20.319,-12.1928 32.8259,-19.8839 3.6722,-2.2038 1.6588,-5.5414 -3.343,-5.5414 -3.6873,0 -37.4497,-6.3243 -52.394,-9.8143 -18.8247,-4.3961 -22.0605,-5.4242 -26.2806,-8.3504 -3.0224,-2.0955 -4.3586,-4.2802 -4.0294,-6.5883 0.722,-5.0648 7.3356,-5.1866 21.907,-0.4032 12.2519,4.0218 39.1698,9.3677 40.5309,8.0495 0.3842,-0.3722 -0.1596,-1.5348 -1.2088,-2.5839 -2.3421,-2.342 -2.4765,-10.8375 -0.2637,-16.6576 1.4619,-3.8451 0.9656,-5.0587 -4.4915,-10.9844 -13.2842,-12.7949 -23.5451,-29.7186 -32.4977,-46.0894 -1.8756,-1.004 -16.7196,-1.6725 -37.1299,-1.6725 -25.4773,0 -35.3573,-0.5651 -39.3975,-2.2533 -7.3031,-3.0514 -8.6613,-5.72 -4.5897,-9.017 2.9169,-2.3619 7.8028,-2.6442 40.1362,-2.3176 27.7452,0.2801 37.8178,-0.1467 40.885,-1.733 9.3647,-4.8427 18.34,1.634 20.8887,15.0735 4.7023,16.2813 18.7408,38.5726 33.4912,45.3861 5.3759,2.3805 6.85,3.8849 6.85,6.9914 0,6.0484 -11.6702,24.185 -16.2592,25.2682 -5.4351,1.2832 -3.1286,2.2072 17.871,7.1599 19.4,4.5755 25.7883,8.1737 25.7883,14.5256 0,2.4931 -2.0864,4.4388 -7.6559,7.1388 -9.0766,4.0188 -16.6817,10.6797 -25.7883,14.5093 -5.1801,2.1298 -7.121,5.8895 -3.2236,6.244 1.1081,0.1016 15.0701,1.1631 31.0266,2.3603 15.9565,1.1973 30.6353,3.0698 32.6194,4.1611 3.9,2.1453 6.2037,8.383 4.6201,12.5096 -0.1279,23.2003 0.1294,42.701 -5.8776,61.2838 -2.0407,5.3675 -7.5636,5.0451 -9.9545,-0.5811 z m -478.8817,-28.8776 c -2.2768,-2.2766 -0.877,-7.7541 4.0044,-15.6708 8.4196,-13.6549 10.3029,-17.4193 14.603,-29.1901 9.6035,-26.2874 12.2652,-39.0816 8.4363,-40.551 -2.9684,-1.1391 -3.0261,-7.6356 -0.09,-10.0728 1.2324,-1.0227 7.9414,-2.5171 14.9089,-3.3207 18.4785,-2.1316 25.6654,-3.3122 40.1241,-6.592 18.7802,-4.2599 29.6126,-4.4941 32.3868,-0.7002 2.9062,3.9743 2.8112,13.4704 -0.207,20.6939 -2.8805,6.8938 -2.9955,8.0488 -0.6576,6.6039 0.968,-0.5981 11.1578,-0.1846 22.6438,0.9195 15.1323,1.4543 21.8342,2.7766 24.3347,4.8013 3.7819,2.8247 3.3034,5.5312 -0.7081,7.678 -2.0227,1.0827 -11.1542,-0.5432 -20.8803,-0.049 -16.4246,0.8338 -18.023,0.6468 -22.4513,-2.6274 -4.8765,-3.6052 -7.9224,-3.3417 -7.9224,0.6857 0,5.2034 -11.7796,26.5027 -18.5861,33.6065 -7.7344,8.072 -13.1482,9.3947 -12.4748,3.0481 0.2028,-1.9108 3.5562,-10.5845 7.452,-19.2752 7.4959,-16.7213 16.3664,-43.7282 14.8581,-45.2365 -13.957,3.4513 -37.0955,7.2325 -51.2129,10.4899 -1.51,1.3122 -3.5484,6.4743 -4.5297,11.4715 -4.1837,21.3063 -12.6651,42.302 -24.7354,61.2312 -7.0278,11.0213 -15.2164,16.1373 -19.2971,12.0565 z m -94.5573,-37.5909 c 0,-0.8771 -3.6692,-5.6463 -8.1537,-10.5982 -4.4844,-4.952 -7.9296,-10.1473 -7.6559,-11.5452 1.1341,-5.7918 24.977,-15.6345 66.8257,-27.5869 l 15.8724,-4.5333 0.9045,-6.3209 c -1.3435,-14.0216 15.5246,-30.0475 20.6903,-46.4943 -1.1689,-1.1887 -23.7725,8.1649 -27.3418,11.3142 -4.6567,4.1089 -11.6362,4.4223 -15.609,0.7009 -9.6204,-7.822 8.3765,-14.8432 12.6047,-16.7642 10.2533,-3.823 38.771,-17.9843 47.2466,-9.8348 2.2553,2.7023 9.6659,7.0235 -2.9447,23.845 -2.0082,2.9595 -5.8112,9.3122 -8.451,14.117 -8.2065,14.9379 -9.2776,16.687 -12.5937,20.5641 l -3.2235,3.769 6.0505,-1.1289 c 10.4661,-1.9528 15.8736,1.9791 23.563,17.1336 6.4895,12.7901 7.8242,18.1473 5.4178,21.7462 -2.1768,3.2555 -6.9532,1.7717 -10.4557,-3.2485 -5.8227,-5.6272 -7.8017,-14.6883 -14.7111,-18.5659 -15.7975,4.1885 -81.9535,19.1178 -81.5884,26.1309 0,1.096 0.7013,4.4377 1.5583,7.4261 1.8693,6.5181 -0.2192,11.4688 -4.8385,11.4688 -1.7417,0 -3.1668,-0.7175 -3.1668,-1.5947 z m 253.7598,-10.1577 c -1.0154,-2.6462 3.8726,-11.439 16.6999,-30.0403 10.223,-14.8248 22.876,-38.8956 22.8904,-43.5459 5.8236,-13.2946 13.8965,-17.6955 25.0019,-10.1588 3.5293,2.4378 11.132,6.3533 16.8949,8.7011 12.0538,4.9106 14.477,4.1005 14.5645,-4.869 1.3415,-7.6272 2.013,-14.9776 6.7228,-23.4687 3.1627,-6.0671 14.3679,-2.7132 13.6611,2.4678 -0.4834,12.1291 -2.6532,10.4342 -5.1166,23.2129 -4.237,9.8257 -4.2154,10.4904 0.397,12.244 2.4075,0.9153 6.7949,2.8115 9.7494,4.2135 4.712,2.236 5.9846,10.3026 0.4189,8.7149 -2.8094,-0.8015 -5.5611,-1.5946 -16.4499,-4.2353 -15.828,-3.8385 -39.7063,-10.0436 -44.2046,-13.7768 -3.0693,-2.5472 -5.0572,-0.7938 -8.8958,7.8463 -7.3598,16.5664 -10.1848,21.8458 -17.2384,32.2148 -11.2012,16.4665 -21.5484,27.9881 -27.2937,30.3915 -6.3896,2.6732 -6.808,2.6778 -7.8018,0.089 z m -323.066,-37.1492 c 0,-2.8697 9.1747,-21.1185 14.8328,-29.503 2.4795,-3.6745 4.5084,-7.4823 4.5084,-8.4618 0,-2.715 10.7109,-2.1222 13.585,0.7518 3.8649,3.8648 3.1225,6.854 -4.1374,16.662 -10.1164,13.6668 -19.9531,22.7113 -24.7007,22.7113 -2.3429,0 -4.0881,-0.9223 -4.0881,-2.1603 z m -71.4219,-18.4591 c -5.5088,-3.4662 -7.7119,-21.8282 -9.0366,-45.939 -0.6918,-12.5922 -0.9735,-23.4192 -0.626,-24.0599 1.4488,-2.6709 14.2408,-4.5343 29.3814,-4.2799 14.8939,0.2503 16.5439,-0.034 20.8643,-3.5888 10.7075,-10.2851 23.4866,-16.2392 32.9879,-28.1781 3.3074,-3.9235 13.151,-3.729 19.6098,-2.2766 9.5746,0.1819 57.014,-0.4958 65.1988,-2.2367 3.5482,-0.7548 7.4923,-1.8318 9.7045,-6.022 9.7015,-13.5905 18.4136,-18.261 26.5139,-33.2444 2.852,-5.6917 3.2498,-5.8479 13.5064,-5.3024 15.7367,-0.4588 29.1016,-3.3932 44.9423,-5.738 5.0597,-0.7415 13.8514,-9.5898 37.2684,-37.5078 6.0612,-7.2262 7.4975,-8.147 11.2824,-7.2327 2.3854,0.5764 9.0382,5.6914 14.7838,11.3669 9.6092,9.4919 29.3821,24.2433 35.733,26.658 1.7966,0.6833 2.9255,0 3.4733,-2.0916 1.3994,-5.351 5.4304,-5.2448 23.4436,0.6178 9.6213,3.1314 23.5841,6.5224 31.028,7.5354 18.5069,2.5185 25.623,4.5376 25.623,7.27 0,3.4763 -5.3598,5.6332 -13.9971,5.6329 -7.7937,-4e-4 -44.4635,-5.4786 -49.4306,-7.3847 -3.5171,-1.3495 -3.3029,0.8238 0.5686,5.7732 1.7335,2.2162 3.1679,4.8932 3.1878,5.9491 0.085,4.6114 -4.2166,3.4063 -17.9104,-5.0162 -15.6508,-9.1802 -31.2663,-18.4981 -45.5375,-29.7591 -10.7648,-8.6264 -10.9533,-8.515 -46.1215,27.2593 -23.7509,24.1602 -32.4161,32.0183 -34.4477,31.2387 -3.3713,-1.2938 -3.8256,-6.6581 3.5825,-14.3293 5.2773,-5.4646 9.462,-9.0706 4.3485,-7.8639 -14.2384,3.3601 -28.398,-0.069 -33.1089,3.45 -10.7726,8.0471 -29.0171,32.2661 -29.0171,35.5902 0,6.2632 -6.6755,7.6931 -42.7119,9.1492 -11.2169,2.7144 -46.217,0.3291 -54.2714,4.0833 -5.3911,2.8385 -28.3184,22.1144 -31.1946,26.2267 -2.2674,3.2416 -4.0007,3.5105 -25.774,3.9972 -20.562,0.4597 -23.342,0.8438 -23.3346,3.2236 0.016,4.5871 7.5913,37.7239 10.4944,45.8955 2.6068,7.3367 2.6018,7.8965 -0.098,10.8794 -5.6719,5.1377 -5.5621,3.6189 -10.9087,0.2547 z m 294.6522,-72.4074 c -11.5242,-3.1499 -27.4807,-6.4186 -35.459,-7.2636 -17.5773,-1.8619 -21.2431,-3.1911 -23.7057,-8.5959 -1.5412,-3.3826 -1.4608,-4.4461 0.4268,-5.6402 15.3052,-3.3026 27.962,1.0321 42.6202,4.79 5.8543,1.5009 10.3408,-0.666 24.972,-12.0606 15.8814,-12.3682 22.9696,-16.8153 26.8028,-16.8153 18.9241,5.5523 31.69,16.4897 49.571,24.851 16.0027,7.4273 19.104,9.9477 14.4419,11.7366 -3.8713,1.4855 -34.1317,-9.1289 -48.4271,-16.9868 l -11.28,-6.2003 c -3.2635,2.8892 -24.3608,21.7539 -23.6706,23.9528 0.5425,0.8778 4.2241,2.9839 8.1812,4.6801 5.1737,2.2177 7.0444,3.8781 6.6593,5.9107 -0.8462,4.4664 -8.2016,3.9092 -31.1328,-2.3585 z m 272.2462,-28.0832 c -0.085,-2.1031 0.3656,-5.989 1.8545,-14.3638 1.4888,-8.3747 3.0516,-18.6636 3.4727,-22.8641 0.6917,-6.8975 0.3948,-7.778 -3.0651,-9.0936 -3.5057,-1.3327 -51.0343,-0.9736 -52.4041,0.396 -0.3262,0.3263 1.9721,3.1585 5.1074,6.2937 4.74,4.74 5.4653,6.338 4.3042,9.4827 -0.768,2.0801 -2.4657,3.9938 -3.7725,4.2526 -18.9493,-9.4245 -37.932,-23.3845 -54.3057,-32.397 l -12.7592,11.9338 c -13.6729,12.7885 -22.7823,18.5728 -26.8132,17.026 -4.9141,-1.8858 -2.3314,-6.7843 9.9854,-18.9388 10.869,-9.6659 15.9164,-22.5207 27.4352,-26.8839 4.0469,-1.4108 5.7628,-0.7975 14.627,5.2268 8.1909,4.2296 24.1454,20.3431 31.5405,21.8036 -1.7337,-5.1556 -2.2166,-9.9338 1.0358,-12.1468 2.8712,-1.7744 67.1429,-0.9711 74.0471,0.9255 9.9454,2.7322 10.5529,3.5894 8.1502,11.5009 -5.892,11.2517 -11.5552,47.3819 -19.8217,53.6446 -8.6429,7.3916 -8.4195,-1.3625 -8.6185,-5.7982 z m 195.1729,-200.2352 c -2.6552,-1.9415 -2.4142,-3.008 3.7184,-16.4515 l 6.5578,-14.3754 -3.3046,-2.8206 c -1.8176,-1.5513 -4.4298,-2.8206 -5.805,-2.8206 -5.2197,0 -29.0631,-15.7357 -40.7636,-26.9023 -15.4798,-16.713 -17.7502,-23.0767 -21.7611,-30.7027 -15.0414,-37.1243 -2.0672,-86.0298 21.9376,-114.0176 10.7114,-11.9944 14.7816,-15.4834 26.118,-22.388 5.9066,-3.5977 5.5899,-7.8672 -0.9931,-13.3876 -7.6103,-6.3818 -10.0126,-14.499 -6.672,-22.544 8.2319,-19.8251 47.4465,-44.1467 71.4333,-44.3042 43.875,3.4741 68.2317,30.9578 68.7406,51.3414 0.05,5.6915 -0.9053,7.7603 -5.9848,12.9622 -4.6224,5.1491 -9.0237,7.9522 -1.6118,11.3738 34.2673,16.2802 56.727,57.1805 51.1352,90.5804 -5.2326,30.8074 -15.6819,47.7048 -47.0559,77.5671 -34.122,32.4779 -73.7564,36.4061 -87.1653,35.6651 -6.8726,8.8753 -18.6442,37.4913 -28.5237,31.2245 z m 18.9853,-52.5742 c 9.8688,-6.8265 13.7664,-4.4034 19.6918,2.7865 l 11.2645,-2.3321 c 50.8374,-10.4402 97.8646,-66.3047 91.6563,-104.8251 -1.5222,-5.8207 -31.315,-16.8258 -46.5088,-17.1795 -5.4994,-0.1274 -7.3409,-0.049 -11.2589,4.4123 -13.2131,15.0443 -27.5809,29.9778 -47.2774,24.6195 -9.1354,-2.737 -7.3073,-9.2736 -14.662,-22.6744 -6.6442,-12.1058 -7.0214,-15.7994 -1.9981,-19.5656 1.0864,-11.1555 -5.1102,-17.2262 -11.0672,-29.5336 -11.372,7.7866 -15.9896,7.8318 -28.1722,6.5562 -12.35,13.785 -22.7036,29.2668 -26.643,43.4277 -4.9509,18.1652 -5.8569,38.821 -2.355,53.6909 1.5869,6.739 3.321,12.2309 3.8534,12.2045 5.6171,-3.7401 9.3484,-7.3547 14.7224,-12.0403 l -3.6535,-7.253 c -3.2333,-6.4182 -3.6441,-9.5716 -3.5706,-27.4001 0.1048,-25.2389 2.7632,-31.3504 11.0148,-25.3165 2.4446,1.7874 2.9041,5.1755 3.2345,23.8495 0.3904,22.0761 1.0765,25.6436 4.9316,25.6436 3.6044,0 3.9964,-4.0235 1.5165,-15.5615 -1.3042,-6.068 -2.3612,-16.7387 -2.3488,-23.7129 0.027,-15.8802 3.1005,-20.3919 10.2987,-15.1229 4.0077,7.6919 4.0833,43.4301 10.1946,37.7685 0.6062,-0.6062 0.3681,-5.1517 -0.529,-10.1011 -1.3129,-7.2433 -1.1858,-9.4442 0.6517,-11.2816 5.6331,-5.6332 12.1614,-1.4202 14.8018,9.5521 1.0332,4.2931 2.9141,9.3865 4.1802,11.3187 3.3505,5.1135 1.4112,10.6936 -3.7165,10.6936 -10.4744,13.9708 -48.8628,26.8049 -51.8345,45.1296 -0.1064,5.6058 22.4371,24.9409 36.0397,30.9099 11.998,5.2649 14.6502,5.467 17.543,1.3371 z m -21.8913,-11.0535 c -2.7709,-1.0934 -14.0498,-14.132 -13.9982,-16.182 0.1112,-4.4404 8.6862,-8.4831 13.8785,-6.5433 4.3115,1.6106 14.6959,12.1985 16.0029,16.3163 2.0123,6.34 -6.9224,9.9454 -15.8832,6.409 z m 76.9689,-20.3143 c -3.0514,-3.0514 -3.9563,-5.6484 -3.9563,-11.3557 0,-5.7073 0.9049,-8.3043 3.9563,-11.3557 4.9401,-4.9401 15.1218,-5.4759 19.1647,-1.0087 3.4707,3.8351 3.3636,5.5935 -0.5562,9.1409 -1.9401,1.7558 -3.2235,4.9642 -3.2235,8.0588 0,5.5255 -4.0934,10.4765 -8.662,10.4765 -1.5217,0 -4.5471,-1.7802 -6.723,-3.9561 z m -18.2335,-97.3124 c -7.345,-9.4891 -22.8913,-35.4999 -21.9556,-42.325 l 1.0741,-4.8899 c -2.8112,-0.4126 -24.3985,4.8017 -14.7103,5.0358 2.8169,0 4.7866,2.9892 13.8076,20.953 7.6776,15.289 23.7778,33.8815 26.7583,30.9011 1.1941,-1.1944 -0.2889,-4.079 -4.9741,-9.675 z m 18.4599,-11.7331 c 3.0527,-3.3815 3.0287,-3.438 -4.1646,-9.8282 -3.9793,-3.535 -9.2134,-7.4503 -11.6314,-8.7007 l -4.3962,-2.2734 c -5.9463,3.1366 7.472,15.1353 11.825,22.3406 1.7485,2.8291 4.957,2.2392 8.3672,-1.5383 z m -20.2796,-35.7442 c -0.6093,-0.6978 -3.2203,-0.4623 -5.8024,0.5233 -4.399,1.6793 -4.5089,1.9287 -1.7441,3.9593 2.5137,1.8462 3.373,1.7688 5.8024,-0.5233 1.5684,-1.4798 2.3532,-3.2614 1.7441,-3.9593 z m 42.3722,-23.5134 c 1.9605,-9.9138 -0.6178,-11.4613 -5.8707,-3.5234 -4.7926,7.2418 -5.2061,9.1223 -2.2722,10.333 4.5538,1.8795 6.7953,0 8.1429,-6.8096 z m -74.6284,4.9574 c -2.8522,-7.2661 -6.8835,-16.6489 -5.2615,-24.655 1.277,-4.883 -2.2536,-3.5652 -6.9522,2.5948 -14.9144,12.9836 11.627,26.8093 12.2137,22.0602 z m 14.2991,-35.7814 c -3.0025,0 -4.7476,8.9602 -4.2913,22.0344 0.2577,7.3814 1.4855,11.4016 5.6118,12.2144 7.8918,3.3384 1.4421,-33.4031 -1.3205,-34.2488 z m 16.948,-9.6706 c -4.0752,9.7034 1.7518,25.1777 -3.0991,39.0855 -0.6011,1.5513 0.915,5.6902 5.42,2.2731 10.6097,-8.6447 4.4878,-39.5755 -2.3209,-41.3586 z m 23.3421,11.6175 c -2.1422,-0.4054 -2.7685,1.3787 -3.39,9.6574 -0.4194,5.5851 -1.3091,11.4239 -1.9772,12.9753 -1.5316,7.7161 16.6253,-19.5378 5.3672,-22.6327 z" fill="#000000" transform="translate(-113.93458,-22.10914) matrix(0.26458333,0,0,0.26458333,-374.67907,-528.01715)"/>
</svg>